<svg id="wave" style="transform:rotate(180deg); transition: 0.3s" viewBox="0 0 1440 490" version="1.1" xmlns="http://www.w3.org/2000/svg"><defs><linearGradient id="sw-gradient-0" x1="0" x2="0" y1="1" y2="0"><stop stop-color="rgba(247, 194, 228, 1)" offset="0%"></stop><stop stop-color="rgba(53, 192, 233, 1)" offset="100%"></stop></linearGradient></defs><path style="transform:translate(0, 0px); opacity:1" fill="url(#sw-gradient-0)" d="M0,49L120,114.3C240,180,480,310,720,326.7C960,343,1200,245,1440,187.8C1680,131,1920,114,2160,98C2400,82,2640,65,2880,81.7C3120,98,3360,147,3600,171.5C3840,196,4080,196,4320,171.5C4560,147,4800,98,5040,73.5C5280,49,5520,49,5760,65.3C6000,82,6240,114,6480,106.2C6720,98,6960,49,7200,89.8C7440,131,7680,261,7920,285.8C8160,310,8400,229,8640,179.7C8880,131,9120,114,9360,155.2C9600,196,9840,294,10080,310.3C10320,327,10560,261,10800,204.2C11040,147,11280,98,11520,81.7C11760,65,12000,82,12240,138.8C12480,196,12720,294,12960,334.8C13200,376,13440,359,13680,318.5C13920,278,14160,212,14400,196C14640,180,14880,212,15120,204.2C15360,196,15600,147,15840,171.5C16080,196,16320,294,16560,310.3C16800,327,17040,261,17160,228.7L17280,196L17280,490L17160,490C17040,490,16800,490,16560,490C16320,490,16080,490,15840,490C15600,490,15360,490,15120,490C14880,490,14640,490,14400,490C14160,490,13920,490,13680,490C13440,490,13200,490,12960,490C12720,490,12480,490,12240,490C12000,490,11760,490,11520,490C11280,490,11040,490,10800,490C10560,490,10320,490,10080,490C9840,490,9600,490,9360,490C9120,490,8880,490,8640,490C8400,490,8160,490,7920,490C7680,490,7440,490,7200,490C6960,490,6720,490,6480,490C6240,490,6000,490,5760,490C5520,490,5280,490,5040,490C4800,490,4560,490,4320,490C4080,490,3840,490,3600,490C3360,490,3120,490,2880,490C2640,490,2400,490,2160,490C1920,490,1680,490,1440,490C1200,490,960,490,720,490C480,490,240,490,120,490L0,490Z"></path></svg>